<svg xmlns="http://www.w3.org/2000/svg" viewBox="0 0 32 32" width="32" height="32">
  <rect x="0" y="0" width="32" height="32" fill="none"/>
  <path fill="#333" d="M16 2C8.2 2 2 8.2 2 16c0 6.1 3.9 11.3 9.4 13.2.7.1.9-.3.9-.6v-2.3c-3.8.8-4.6-1.8-4.6-1.8-.6-1.5-1.4-1.9-1.4-1.9-1.2-.8.1-.8.1-.8 1.3.1 2 .8 2 .8 1.1 1.9 2.9 1.3 3.6 1 .1-.8.4-1.3.7-1.6-2.8-.3-5.7-1.4-5.7-6.3 0-1.4.5-2.5 1.3-3.4-.1-.3-.6-1.6.1-3.3 0 0 1.1-.3 3.6 1.3 1-.3 2.1-.5 3.2-.5s2.2.2 3.2.5c2.5-1.6 3.6-1.3 3.6-1.3.7 1.7.2 3 .1 3.3.8.9 1.3 2 1.3 3.4 0 4.9-2.9 6-5.7 6.3.4.3.8.9.8 1.9v2.8c0 .3.2.7.9.6C26.1 27.3 30 22.1 30 16c0-7.8-6.2-14-14-14z"/>
</svg>