<svg xmlns="http://www.w3.org/2000/svg" viewBox="0 0 64 64" width="64" height="64">
  <rect x="0" y="0" width="64" height="64" fill="none"/>
  <!-- Backend Gear -->
  <circle cx="24" cy="32" r="14" fill="#34495e"/>
  <path d="M24 18l-4 4h-4l-4-4v-4l4-4h4l4 4z" fill="#34495e"/>
  <path d="M24 46l-4-4h-4l-4 4v4l4 4h4l4-4z" fill="#34495e"/>
  <path d="M10 32l4 4v4l-4 4h-4l-4-4v-4l4-4z" fill="#34495e"/>
  <path d="M38 32l-4 4v4l4 4h4l4-4v-4l-4-4z" fill="#34495e"/>
  <circle cx="24" cy="32" r="6" fill="#ecf0f1"/>
  <!-- Frontend Browser Window -->
  <rect x="32" y="18" width="28" height="28" rx="4" fill="#2980b9"/>
  <rect x="36" y="22" width="20" height="4" fill="#ecf0f1"/>
  <circle cx="38" cy="24" r="1.5" fill="#e74c3c"/>
  <circle cx="42" cy="24" r="1.5" fill="#f1c40f"/>
  <circle cx="46" cy="24" r="1.5" fill="#2ecc71"/>
  <rect x="36" y="28" width="20" height="14" fill="#ecf0f1"/>
</svg>